# xmcd
#
# Track frame offsets:
#	150
#	24574
#	48728
#	67915
#	87091
#	106198
#	134234
#	161173
#	184545
#	209901
#
# Disc length: 3154 seconds
# Revision: 0
# Processed by: cddbd v1.5.2PL0 Copyright (c) Steve Scherf et al.
# Submitted via: dBpowerAMP V12.0
#
DISCID=910c500a
DTITLE=TOMMY SCHNELLER - CREAM OF THE CROP
DYEAR=2014
DGENRE=Blues
TTITLE0=HANDS IN THE AIR
TTITLE1=SHE'S SO GOOD TO ME
TTITLE2=CREAM OF THE CROP
TTITLE3=SUPER HERO
TTITLE4=AIN'T NO MAYBE
TTITLE5=ISN'T IT NEW
TTITLE6=YOUR SOMEBODY ELSE
TTITLE7=WHAT DID I DO
TTITLE8=HIGHER and HIGHER
TTITLE9=YOU DON'T SEEM TO CARE
EXTD=
EXTT0=
EXTT1=
EXTT2=
EXTT3=
EXTT4=
EXTT5=
EXTT6=
EXTT7=
EXTT8=
EXTT9=
PLAYORDER=
